<svg width="100" height="100" viewBox="0 0 100 100" fill="none" xmlns="http://www.w3.org/2000/svg">
  <defs>
    <linearGradient id="logo-grad" x1="0" y1="0" x2="100" y2="100" gradientUnits="userSpaceOnUse">
      <stop offset="0%" stop-color="#4F86FF" />
      <stop offset="100%" stop-color="#8B5CF6" />
    </linearGradient>
  </defs>
  
  <!-- Rounded Background -->
  <rect width="100" height="100" rx="24" fill="url(#logo-grad)" />
  
  <!-- Main Sparkle Shape -->
  <path d="M50 25C50 25 52.5 40 65 42.5C77.5 45 80 50 80 50C80 50 77.5 55 65 57.5C52.5 60 50 75 50 75C50 75 47.5 60 35 57.5C22.5 55 20 50 20 50C20 50 22.5 45 35 42.5C47.5 40 50 25 50 25Z" 
        stroke="white" 
        stroke-width="5" 
        stroke-linecap="round" 
        stroke-linejoin="round" />
  
  <!-- Top Right Plus -->
  <path d="M72 20V32M66 26H78" stroke="white" stroke-width="5" stroke-linecap="round" />
  
  <!-- Bottom Left Dot -->
  <circle cx="28" cy="72" r="5" fill="white" />
</svg>
