<svg width="64" height="64" viewBox="0 0 64 64" fill="none" xmlns="http://www.w3.org/2000/svg">
<defs>
<linearGradient id="premiumGradient" x1="0" y1="0" x2="64" y2="64" gradientUnits="userSpaceOnUse">
<stop offset="0%" stop-color="#6366f1"/>
<stop offset="100%" stop-color="#8b5cf6"/>
</linearGradient>
<filter id="glow" x="-20%" y="-20%" width="140%" height="140%">
<feGaussianBlur stdDeviation="2" result="blur"/>
<feComposite in="SourceGraphic" in2="blur" operator="over"/>
</filter>
</defs>
<rect x="12" y="8" width="40" height="48" rx="8" fill="url(#premiumGradient)" filter="url(#glow)"/>
<path d="M52 8H40V20H52V8Z" fill="#4c1d95" opacity="0.5"/>
<path d="M52 8L40 20H52V8Z" fill="white" opacity="0.2"/>
<path d="M32 24V40M24 32H40" stroke="white" stroke-width="3" stroke-linecap="round" stroke-linejoin="round"/>
<circle cx="24" cy="32" r="3" fill="white"/>
<circle cx="40" cy="32" r="3" fill="white"/>
<circle cx="32" cy="24" r="3" fill="white"/>
<circle cx="32" cy="40" r="3" fill="white"/>
<path d="M32 32C34 28 36 28 38 26" stroke="white" stroke-width="2" stroke-linecap="round" opacity="0.8"/>
<path d="M32 32C30 36 28 36 26 38" stroke="white" stroke-width="2" stroke-linecap="round" opacity="0.8"/>
</svg>
